<?xml version="1.0" encoding="UTF-8" standalone="no"?>
<svg
   fill="none"
   viewBox="0 0 512 512"
   version="1.1"
   id="svg14"
   sodipodi:docname="icon.svg"
   xml:space="preserve"
   inkscape:version="1.2.1 (9c6d41e410, 2022-07-14)"
   xmlns:inkscape="http://www.inkscape.org/namespaces/inkscape"
   xmlns:sodipodi="http://sodipodi.sourceforge.net/DTD/sodipodi-0.dtd"
   xmlns="http://www.w3.org/2000/svg"
   xmlns:svg="http://www.w3.org/2000/svg"><sodipodi:namedview
     id="namedview16"
     pagecolor="#ffffff"
     bordercolor="#111111"
     borderopacity="1"
     inkscape:showpageshadow="0"
     inkscape:pageopacity="0"
     inkscape:pagecheckerboard="1"
     inkscape:deskcolor="#d1d1d1"
     showgrid="false"
     inkscape:zoom="0.93164062"
     inkscape:cx="205.55136"
     inkscape:cy="278.54088"
     inkscape:window-width="1366"
     inkscape:window-height="658"
     inkscape:window-x="-6"
     inkscape:window-y="-6"
     inkscape:window-maximized="1"
     inkscape:current-layer="svg14" /><defs
     id="defs2" /><circle
     cx="256"
     cy="256"
     r="256"
     fill="#2D323B"
     id="circle4"
     style="fill:#191919;fill-opacity:1" /><g
     inkscape:label="Layer 1"
     id="layer1"
     transform="matrix(9.4893715,0,0,9.4893715,61.454608,-45.401293)"><g
       id="g3115"
       transform="matrix(0.0410016,-0.0410016,0.0410016,0.0410016,17.336015,35.796783)"
       style="fill:#0096ff;fill-opacity:1"><path
         style="fill:#0096ff;fill-opacity:1;stroke-width:0.47311"
         id="path111"
         sodipodi:type="arc"
         sodipodi:cx="-86.959991"
         sodipodi:cy="-87.227684"
         sodipodi:rx="84.466423"
         sodipodi:ry="84.466423"
         sodipodi:start="0"
         sodipodi:end="3.1415927"
         sodipodi:arc-type="chord"
         d="m -2.4935684,-87.227684 a 84.466423,84.466423 0 0 1 -42.2332126,73.150069 84.466423,84.466423 0 0 1 -84.466429,-2e-6 84.466423,84.466423 0 0 1 -42.2332,-73.150067 z"
         sodipodi:open="true"
         transform="scale(-1)" /><rect
         style="fill:#0096ff;fill-opacity:1;stroke-width:0.327951"
         id="rect14527"
         width="30.853001"
         height="30.853003"
         x="-161.96825"
         y="-261.09808"
         transform="scale(-1)"
         ry="6.222857"
         rx="6.222857" /><rect
         style="fill:#0096ff;fill-opacity:1;stroke-width:0.126126"
         id="rect14585"
         width="11.865619"
         height="11.865619"
         x="-73.732872"
         y="-235.10974"
         transform="scale(-1)"
         ry="4.242857"
         rx="4.242857" /><rect
         style="fill:#0096ff;fill-opacity:1;stroke-width:0.249996"
         id="rect14587"
         width="23.519089"
         height="23.519089"
         x="-33.262913"
         y="-275.83481"
         transform="scale(-1)"
         ry="4.5257144"
         rx="4.5257144" /><rect
         style="fill:#0096ff;fill-opacity:1;stroke-width:0.107525"
         id="rect14591"
         width="10.115733"
         height="10.115733"
         x="-95.480957"
         y="-403.54913"
         transform="scale(-1)"
         ry="3.6771429"
         rx="3.6771429" /><rect
         style="fill:#0096ff;fill-opacity:1;stroke-width:0.298789"
         id="rect14595"
         width="28.109493"
         height="28.109493"
         x="-78.274399"
         y="-280.34497"
         transform="scale(-1)"
         ry="5.0914283"
         rx="5.0914283" /><rect
         style="fill:#0096ff;fill-opacity:1;stroke-width:0.204298"
         id="rect14597"
         width="19.219904"
         height="19.219904"
         x="-115.35618"
         y="-254.74194"
         transform="scale(-1)"
         ry="4.242857"
         rx="4.242857" /><rect
         style="fill:#0096ff;fill-opacity:1;stroke-width:0.249996"
         id="rect14599"
         width="23.519089"
         height="23.519089"
         x="-115.64663"
         y="-309.90045"
         transform="scale(-1)"
         ry="6.5057139"
         rx="6.5057139" /><rect
         style="fill:#0096ff;fill-opacity:1;stroke-width:0.197576"
         id="rect14601"
         width="18.587664"
         height="18.587664"
         x="-157.18288"
         y="-310.0864"
         transform="scale(-1)"
         ry="5.9400001"
         rx="5.9400001" /><path
         id="rect963"
         style="fill:#0096ff;fill-opacity:1;stroke:none;stroke-width:3.95552;stroke-linecap:round;stroke-linejoin:round;paint-order:fill markers stroke"
         d="m 2.5051281,86.61792 v 113.2541 h 0.05347 v 27.19061 c 0,2.35053 1.89159,4.24212 4.24213,4.24212 H 34.231958 c 2.35054,0 4.24213,-1.89159 4.24213,-4.24212 v -8.65359 c -0.0447,-0.19785 -0.0713,-0.4032 -0.0713,-0.61493 v -17.73494 c 0,-1.5313 1.23144,-2.76273 2.76273,-2.76273 h 17.73495 c 1.5313,0 2.76273,1.23143 2.76273,2.76273 v 10.38252 c 0.16191,0.76429 0.80803,1.34572 1.62199,1.34572 h 10.83703 c 0.93549,0 1.68437,-0.74889 1.68437,-1.68438 v -1.31007 c -0.0445,-0.19753 -0.0713,-0.40356 -0.0713,-0.61493 v -17.73494 c 0,-1.5313 1.24035,-2.76273 2.77165,-2.76273 h 18.2964 c 1.5313,0 2.76273,1.23143 2.76273,2.76273 v 17.73494 c 0,0.21082 -0.01819,0.41787 -0.06239,0.61493 v 8.76053 c 0,1.97816 1.586652,3.57372 3.564812,3.57372 h 22.91283 c 1.74328,0 3.18413,-1.23998 3.50243,-2.88749 v -21.57603 c 0,-1.5313 1.23144,-2.76273 2.76273,-2.76273 h 16.04165 c 1.5313,0 2.76273,1.23143 2.76273,2.76273 v 17.57452 c 0.17305,1.17306 1.13011,2.07651 2.35278,2.07651 h 15.57823 c 1.3451,0 2.43298,-1.07897 2.43298,-2.42408 v -15.57823 c 0,-0.15075 -0.0186,-0.3026 -0.0446,-0.4456 V 86.61792 Z m 83.2294599,49.35483 h 15.141542 c 2.35054,0 4.24212,1.89159 4.24212,4.24213 v 15.15045 c 0,2.35055 -1.89158,4.24213 -4.24212,4.24213 H 85.734588 c -2.35053,0 -4.24212,-1.89158 -4.24212,-4.24213 v -15.15045 c 0,-2.35054 1.89159,-4.24213 4.24212,-4.24213 z m 54.113852,25.45277 h 5.64132 c 2.35053,0 4.24212,1.89158 4.24212,4.24212 v 5.64132 c 0,2.35054 -1.89159,4.24213 -4.24212,4.24213 h -5.64132 c -2.35054,0 -4.24213,-1.89159 -4.24213,-4.24213 v -5.64132 c 0,-2.35054 1.89159,-4.24212 4.24213,-4.24212 z M 26.933008,162.3791 h 11.94212 c 2.35055,0 4.24213,1.89159 4.24213,4.24213 v 11.94212 c 0,2.35054 -1.89158,4.24213 -4.24213,4.24213 h -11.94212 c -2.35054,0 -4.24213,-1.89159 -4.24213,-4.24213 v -11.94212 c 0,-2.35054 1.89159,-4.24213 4.24213,-4.24213 z" /><rect
         style="fill:#0096ff;fill-opacity:1;stroke-width:0.298789"
         id="rect3800"
         width="28.109493"
         height="28.109493"
         x="-64.273567"
         y="-330.60843"
         transform="scale(-1)"
         ry="5.9400001"
         rx="5.9400001" /><rect
         style="fill:#0096ff;fill-opacity:1;stroke-width:0.277341"
         id="rect3802"
         width="26.091654"
         height="26.091654"
         x="-127.37477"
         y="-354.15613"
         transform="scale(-1)"
         ry="4.242857"
         rx="4.242857" /><rect
         style="fill:#0096ff;fill-opacity:1;stroke-width:0.197576"
         id="rect3804"
         width="18.587664"
         height="18.587664"
         x="-71.368439"
         y="-366.21118"
         transform="scale(-1)"
         ry="5.9400001"
         rx="5.9400001" /></g><path
       style="fill:none;fill-opacity:1;stroke:#0042cc;stroke-width:5.75004;stroke-linecap:round;stroke-linejoin:miter;stroke-dasharray:none;stroke-dashoffset:0;stroke-opacity:1"
       id="path970"
       sodipodi:type="arc"
       sodipodi:cx="20.500305"
       sodipodi:cy="31.760893"
       sodipodi:rx="14.375869"
       sodipodi:ry="14.375869"
       sodipodi:start="1.5707963"
       sodipodi:end="0"
       sodipodi:arc-type="arc"
       d="M 20.500305,46.136762 A 14.375869,14.375869 0 0 1 7.2187343,37.2623 14.375869,14.375869 0 0 1 10.335031,21.595619 14.375869,14.375869 0 0 1 26.001712,18.479322 14.375869,14.375869 0 0 1 34.876174,31.760893"
       sodipodi:open="true" /></g></svg>
